<svg enable-background="new 0 0 800 800" style="margin-bottom: 7px;fill: #fff;" width="30px" id="Layer_1" version="1.1" viewBox="0 0 800 800" xml:space="preserve" xmlns="http://www.w3.org/2000/svg" xmlns:xlink="http://www.w3.org/1999/xlink">
<g>
<path d="M740.084,220.762c8.532,0,15.444-6.912,15.444-15.444c0-8.514-6.912-15.444-15.444-15.444H59.916   c-8.523,0-15.444,6.93-15.444,15.444c0,8.532,6.92,15.444,15.444,15.444h17.366v221.517H59.916   c-8.523,0-15.444,6.912-15.444,15.443c0,8.532,6.92,15.443,15.444,15.443h17.366v275.76c0,8.515,6.92,15.444,15.443,15.444H312.01   c8.523,0,15.444-6.93,15.444-15.444V452.483c4.516-41.349,38.557-60.016,72.357-60.016c19.184,0,37.669,6.395,50.699,17.529   c13.737,11.738,21.261,28.491,22.045,48.537v290.393c0,8.515,6.912,15.444,15.444,15.444h219.276   c8.532,0,15.443-6.93,15.443-15.444v-275.76h17.365c8.532,0,15.444-6.911,15.444-15.443c0-8.531-6.912-15.443-15.444-15.443   h-17.365V220.762H740.084z M691.832,247.237H108.168v-25.785h583.664V247.237z M173.484,725.692v-55.88h53.785v55.88H173.484z    M258.156,733.482v-79.113c0-8.531-6.92-15.443-15.443-15.443H158.04c-8.532,0-15.444,6.912-15.444,15.443v79.113h-34.428V473.166   h188.399v260.316H258.156z M399.811,361.581c-26.302,0-52.733,9.031-72.357,26.561v-63.636h145.101v63.998   C452.889,370.75,426.293,361.581,399.811,361.581z M575.945,725.692v-55.88h53.785v55.88H575.945z M691.832,733.482h-31.214   v-79.113c0-8.531-6.921-15.443-15.444-15.443h-84.672c-8.531,0-15.443,6.912-15.443,15.443v79.113h-41.617V473.166h188.391V733.482   z M503.441,442.279V309.063c0-8.515-6.92-15.444-15.442-15.444H312.01c-8.532,0-15.443,6.929-15.443,15.444v133.217H108.168   V278.124h583.664v164.156H503.441z"></path>
<path d="M59.916,172.225h680.168c8.532,0,15.444-6.912,15.444-15.443c0-8.532-6.912-15.444-15.444-15.444H59.916   c-8.523,0-15.444,6.912-15.444,15.444C44.472,165.313,51.392,172.225,59.916,172.225z"></path>
<path d="M250.986,331.969h-96.247c-8.531,0-15.443,6.911-15.443,15.443v52.57c0,8.532,6.912,15.443,15.443,15.443   h96.247c8.531,0,15.442-6.911,15.442-15.443v-52.57C266.429,338.88,259.517,331.969,250.986,331.969z M235.542,384.54h-65.359   v-21.684h65.359V384.54z"></path>
<path d="M648.104,331.969h-96.246c-8.532,0-15.443,6.911-15.443,15.443v52.57c0,8.532,6.911,15.443,15.443,15.443   h96.246c8.531,0,15.443-6.911,15.443-15.443v-52.57C663.548,338.88,656.636,331.969,648.104,331.969z M632.66,384.54h-65.359   v-21.684h65.359V384.54z"></path>
<path d="M91.362,123.879h616.275c8.522,0,15.442-6.912,15.442-15.444V51.074c0-8.515-6.92-15.444-15.442-15.444   H91.362c-8.522,0-15.443,6.929-15.443,15.444v57.361C75.919,116.967,82.84,123.879,91.362,123.879z M517.455,92.991h-57.361V66.517   h57.361V92.991z M548.342,66.517h56.482v26.475h-56.482V66.517z M429.206,92.991h-57.36V66.517h57.36V92.991z M340.958,92.991   h-57.361V66.517h57.361V92.991z M252.709,92.991h-57.361V66.517h57.361V92.991z M692.194,92.991h-56.482V66.517h56.482V92.991z    M106.806,66.517h57.655v26.475h-57.655V66.517z"></path>
</g>
</svg>