<?xml version="1.0" encoding="UTF-8"?> <svg xmlns="http://www.w3.org/2000/svg" xmlns:xlink="http://www.w3.org/1999/xlink"><symbol id="large-cross" viewBox="0 0 31.719 31.844"><path d="M687,602.038l13.338-13.395a1.493,1.493,0,0,0,0-2.105,1.477,1.477,0,0,0-2.1,0l-13.338,13.395-13.338-13.395a1.478,1.478,0,0,0-2.1,0,1.494,1.494,0,0,0,0,2.105l13.339,13.395-13.339,13.395a1.493,1.493,0,0,0,0,2.1,1.478,1.478,0,0,0,2.1,0l13.338-13.395,13.338,13.395a1.476,1.476,0,0,0,2.1,0,1.491,1.491,0,0,0,0-2.1Z" transform="translate(-669.06-586.12)"></path></symbol><symbol id="small-cross" viewBox="0 0 18.719 18.844"><path d="M708.615,980.55l6.8-6.848a1.514,1.514,0,0,0,0-2.132,1.488,1.488,0,0,0-2.116,0l-6.8,6.848-6.8-6.848a1.488,1.488,0,0,0-2.116,0,1.514,1.514,0,0,0,0,2.132l6.8,6.848-6.8,6.848a1.514,1.514,0,0,0,0,2.132,1.49,1.49,0,0,0,2.116,0l6.8-6.848,6.8,6.848a1.49,1.49,0,0,0,2.116,0,1.514,1.514,0,0,0,0-2.132Z" transform="translate(-697.16-971.12)"></path></symbol><symbol id="footer-call" viewBox="0 0 29.031 29"><path d="M487.554,6560a1.012,1.012,0,0,0-.6.04c-2.168.85-3.532,3.95-3.853,6.08-1,6.93,4.455,12.93,9.472,16.87,4.456,3.51,13,9.26,18.063,3.71A4.187,4.187,0,0,0,512,6584c-0.12-1.69-1.685-2.9-2.89-3.83-0.923-.68-2.849-2.57-4.054-2.53-1.083.04-1.766,1.16-2.448,1.85l-1.2,1.21c-0.2.2-2.77-1.49-3.051-1.69a20.629,20.629,0,0,1-2.93-2.3,18.483,18.483,0,0,1-2.368-2.74c-0.2-.28-1.846-2.74-1.686-2.94,0,0,1.4-1.53,1.806-2.13,0.843-1.29,1.486-2.3.522-3.83a9.465,9.465,0,0,0-1.284-1.49,24.528,24.528,0,0,0-2.649-2.33A5.682,5.682,0,0,0,487.554,6560Z" transform="translate(-482.97-6560)"></path></symbol><symbol id="menu-call" viewBox="0 0 17.031 17"><path d="M623.679,2295.01a0.6,0.6,0,0,0-.353.03c-1.27.49-2.069,2.31-2.258,3.56-0.588,4.06,2.611,7.57,5.551,9.88,2.611,2.05,7.621,5.43,10.584,2.17a2.449,2.449,0,0,0,.8-1.58,3.525,3.525,0,0,0-1.694-2.24c-0.541-.4-1.67-1.51-2.375-1.48a2.5,2.5,0,0,0-1.435,1.08l-0.706.71a8.23,8.23,0,0,1-1.787-.99,11.6,11.6,0,0,1-1.717-1.35,11.164,11.164,0,0,1-1.388-1.6,8.51,8.51,0,0,1-.987-1.72s0.823-.9,1.058-1.25c0.494-.76.87-1.35,0.306-2.24a5.661,5.661,0,0,0-.753-0.88,14.388,14.388,0,0,0-1.552-1.36A3.393,3.393,0,0,0,623.679,2295.01Z" transform="translate(-620.97-2295)"></path></symbol><symbol id="footer-contact" viewBox="0 0 44.812 28"><path d="M552.719 6561a.526 .526 0 0 0 -.517 .54v1.58l22.4 15.93 22.4-15.93v-1.58a.526 .526 0 0 0 -.517 -.54H552.72m-.517 4.76v22.7a.526 .526 0 0 0 .517 .54h43.764a.526 .526 0 0 0 .517 -.54v-22.7l-21.782 15.5a1.072 1.072 0 0 1 -1.233 0" transform="translate(-552.19-6561)"></path></symbol><symbol id="menu-contact" viewBox="0 0 30 19"><path d="M672.346 2293a.354 .354 0 0 0 -.346 .37v1.07l15 10.81 15-10.81v-1.07a.354 .354 0 0 0 -.346 -.37H672.35M672 2296.23v15.4a.354 .354 0 0 0 .346 .37h29.31a.354 .354 0 0 0 .346 -.37v-15.4l-14.587 10.52a.7 .7 0 0 1 -.826 0" transform="translate(-672-2293)"></path></symbol><symbol id="facebook" viewBox="0 0 15.063 33.97"><path d="m459.12 6866.02h-4.542v16.98h-6.731v-16.98h-3.2v-5.99h3.2v-3.89c0-2.77 1.259-7.12 6.792-7.12l4.986.03v5.82h-3.619a1.4 1.4 0 0 0 -1.428 1.63v3.53h5.132" transform="translate(-444.66-6849.03)"></path></symbol><symbol id="instagram" viewBox="0 0 29.75 29.72"><path d="m184.22 6853.27h-24.687a2.381 2.381 0 0 0 -2.529 2.52v24.69a2.36 2.36 0 0 0 2.529 2.52h24.687a2.386 2.386 0 0 0 2.53 -2.52v-24.69a2.394 2.394 0 0 0 -2.53 -2.52m.345 2.13v4.26h-4.27v-4.26h4.27m-25.442 25.51l-.012-14.94h4.272a8.5 8.5 0 0 1 17.009 0h4.248l.001 14.92m-12.762-21.29a6.385 6.385 0 1 0 6.388 6.39 6.392 6.392 0 0 0 -6.388 -6.39m0 10.66a4.27 4.27 0 1 1 4.269 -4.27 4.275 4.275 0 0 1 -4.269 4.27" transform="translate(-157-6853.28)"></path></symbol><symbol id="pinterest" viewBox="0 0 27.5 34"><path d="m580.08 6848.99c-5.584 0-9.01 2.19-10.906 4.04a11.651 11.651 0 0 0 -3.658 8.23c0 3.69 1.587 6.52 4.244 7.56a.91 .91 0 0 0 1.3 -.62c.047-.17.128-.48.207-.78s.154-.59.2-.77a1.1 1.1 0 0 0 -.333 -1.26 5.3 5.3 0 0 1 -1.273 -3.65c0-5.87 4.98-9.04 9.664-9.04 4.943 0 8.136 2.83 8.136 7.19 0 5.73-2.643 10.05-6.148 10.05a3.129 3.129 0 0 1 -2.45 -1.08 2.662 2.662 0 0 1 -.5 -2.38c.216-.87.506-1.78.787-2.66a15.628 15.628 0 0 0 .988 -4.23 2.83 2.83 0 0 0 -2.922 -3.11c-2.295 0-4.092 2.28-4.092 5.2a7.467 7.467 0 0 0 .63 3.08c-.207.85-2.2 8.96-2.566 10.45a20.279 20.279 0 0 0 -.075 7.32l.013.08a.468 .468 0 0 0 .476 .4 .5 .5 0 0 0 .392 -.19l.049-.06a19.846 19.846 0 0 0 3.611 -6.32c.194-.69.981-3.67 1.289-4.84a6.383 6.383 0 0 0 4.816 2.09c6.4 0 11.05-5.65 11.05-13.43-.006-5.54-4.835-11.27-12.927-11.27" transform="translate(-565.5-6849)"></path></symbol><symbol id="twitter" viewBox="0 0 35.468 28.59"><path d="M314.548,6862.1a8.866,8.866,0,0,1-.187-1.68,7.28,7.28,0,0,1,1.606-4.5,7.389,7.389,0,0,1,5.667-2.69,7.509,7.509,0,0,1,5.311,2.25,12.347,12.347,0,0,0,4.618-1.72,6.963,6.963,0,0,1-3.135,3.98,13.48,13.48,0,0,0,4.129-1.12,14.036,14.036,0,0,1-3.631,3.72,21.376,21.376,0,0,1-.977,7.15,20.55,20.55,0,0,1-8.633,11.27c-5.955,3.93-15.512,4.26-22.225-.15a14.73,14.73,0,0,0,10.749-3.01,7.4,7.4,0,0,1-6.784-5.01,6.979,6.979,0,0,0,3.2-.13,7.356,7.356,0,0,1-5.741-7.17,6.552,6.552,0,0,0,3.244.88,7.273,7.273,0,0,1-2.226-9.61A20.818,20.818,0,0,0,314.548,6862.1Z" transform="translate(-297.09-6853.22)"></path></symbol><symbol id="arrow" viewBox="0 0 33.969 23.844"><path d="m75.47 57.58h-27.27l8.04-7.893a1.472 1.472 0 0 0 0 -2.108 1.537 1.537 0 0 0 -2.147 0l-10.628 10.438a1.5 1.5 0 0 0 -.445 1.062 1.478 1.478 0 0 0 .445 1.054l10.628 10.439a1.537 1.537 0 0 0 2.147 0 1.472 1.472 0 0 0 0 -2.108l-8.04-7.9h27.28a1.491 1.491 0 1 0 0 -2.984" transform="translate(-43-47.16)"></path></symbol><symbol id="burger" viewBox="0 0 33 33"><path d="m44 73h33v3h-33v-3m0-15h33v3h-33v-3m0-15h33v3h-33v-3" transform="translate(-44-43)"></path></symbol><symbol id="cart" viewBox="0 0 33 40"><path d="m685.5 36c-3.9 0-6.5 2.048-6.5 6v1h-9c-.651 0-1 .09-1 .75v31.06a1.187 1.187 0 0 0 1.179 1.194h30.642a1.187 1.187 0 0 0 1.179 -1.194v-31.06c0-.66-.349-.75-1-.75h-9v-1c0-3.952-2.6-6-6.5-6m-4.5 6c0-2.634 1.4-4 4-4s5 1.366 5 4v1h-9v-1m19 3v29h-29v-29h8v4a.9 .9 0 0 0 1 1 .809 .809 0 0 0 1 -1c-.124-.114 0-4 0-4h9v4a1 1 0 1 0 2 0v-4h8" transform="translate(-669-36)"></path></symbol><symbol id="edit" viewBox="0 0 33 33"><path d="m701.69 50.754l-7.451-7.45a1.053 1.053 0 0 0 -1.49 0l-4.493 4.496-17.06 17.06a1.055 1.055 0 0 0 -.287 .536l-1.888 9.338a1.054 1.054 0 0 0 1.029 1.265 1.036 1.036 0 0 0 .209 -.021l9.341-1.889a1.049 1.049 0 0 0 .536 -.288l2.98-2.98 18.576-18.577a1.054 1.054 0 0 0 -.002 -1.491m-19.322 17.833l-2.235-2.236 12.591-12.592 2.236 2.236m-16.317 8.867l-2.236-2.235 12.593-12.593 2.235 2.235m-12.367 19.819l-7.468 1.512 1.51-7.471 2.01-2.01 5.961 5.961m15.569-15.579l-5.96-5.961 3-3 5.96 5.961" transform="translate(-669-43)"></path></symbol><symbol id="help" viewBox="0 0 47 37"><path d="m702 43v2h-47v-2h47m0 31v2h-47v-2h47m-47-29h2v29h-2v-29m45 0h2v29h-2v-29m-21.02 17.56v-.8a1.964 1.964 0 0 1 .03 -.36 .936 .936 0 0 1 .14 -.33c.073-.113.137-.2.19-.27a2.02 2.02 0 0 1 .29 -.27q.21-.17.34-.26c.087-.06.233-.163.44-.31s.363-.26.47-.34q.58-.42.861-.66a5.875 5.875 0 0 0 .64 -.67 2.564 2.564 0 0 0 .51 -.97 4.643 4.643 0 0 0 .15 -1.24 3.427 3.427 0 0 0 -1.24 -2.71 4.611 4.611 0 0 0 -3.121 -1.07 4.511 4.511 0 0 0 -3.471 1.3 4.829 4.829 0 0 0 -1.25 3.32l1.981.16q.159-2.94 2.7-2.94a2.359 2.359 0 0 1 1.8 .62 2.043 2.043 0 0 1 .58 1.44 2.282 2.282 0 0 1 -.56 1.52 10.459 10.459 0 0 1 -1.559 1.28 6.173 6.173 0 0 0 -1.37 1.23 2.258 2.258 0 0 0 -.41 1.39v.94h1.86m.439 4.04v-2.48h-2.56v2.48h2.56m9.581 11.4v-2h8v2h-8m3 2v-2h2v2h-2" transform="translate(-655-43)"></path></symbol><symbol id="logo" viewBox="0 0 302.58 74.16"><defs><style>.cls-1{fill:#1d1d1b;}</style></defs><path class="cls-1" d="M72,105.8a17.94,17.94,0,0,1-1.79,8.7,12.73,12.73,0,0,1-4.64,4.91,17.28,17.28,0,0,1-6.35,2.18,47.75,47.75,0,0,1-6.87.51,22.48,22.48,0,0,1-8.85-1.48,12.15,12.15,0,0,1-5.19-4,13.89,13.89,0,0,1-2.33-5.85,30.76,30.76,0,0,1-.32-7H47.4c0,1.36.05,2.63.16,3.82a9.58,9.58,0,0,0,.77,3.16,4.7,4.7,0,0,0,2,2.15,7.67,7.67,0,0,0,3.79.78,5.49,5.49,0,0,0,4.44-1.76A6.93,6.93,0,0,0,60,107.28a6.2,6.2,0,0,0-1.75-4.37,22.75,22.75,0,0,0-4.41-3.54c-1.77-1.12-3.66-2.24-5.69-3.36a34.12,34.12,0,0,1-5.69-3.9,20.06,20.06,0,0,1-4.41-5.18,13.87,13.87,0,0,1-1.75-7.18,20.62,20.62,0,0,1,.89-6.16,12.36,12.36,0,0,1,3-5,14.56,14.56,0,0,1,5.7-3.39,27.65,27.65,0,0,1,9-1.25q8.56,0,12.75,4.06t3.62,12.87H59.8a24.14,24.14,0,0,0-.2-3.08A8.7,8.7,0,0,0,58.82,75a4.94,4.94,0,0,0-1.63-2,4.84,4.84,0,0,0-2.85-.74,6.21,6.21,0,0,0-4.48,1.52,5.87,5.87,0,0,0-1.6,4.48A6.35,6.35,0,0,0,50,82.87a19.56,19.56,0,0,0,4.41,3.44q2.64,1.56,5.69,3.15a34.55,34.55,0,0,1,5.69,3.75,18.65,18.65,0,0,1,4.41,5.14A14.57,14.57,0,0,1,72,105.8Z" transform="translate(-35.55 -47.94)"></path><path class="cls-1" d="M90.14,121.16V64.86h30.72v8.66h-19V87.4h17.47v8.65H101.91v16.46h19.58v8.65Zm25.42-73.22L103.08,59.09H98l7-11.15Z" transform="translate(-35.55 -47.94)"></path><path class="cls-1" d="M136.77,64.86H170.7V75.07L147,112.51h24.25v8.65H135.68V110.87l23.63-37.35H136.77Z" transform="translate(-35.55 -47.94)"></path><path class="cls-1" d="M183.33,121.16l15.6-56.3h15.52l15.28,56.3h-12.4l-3.12-12.47H198.15L195,121.16ZM206,75.7h-.15L200.49,100h11.23Z" transform="translate(-35.55 -47.94)"></path><path class="cls-1" d="M245.09,121.16V64.86H261l15,39h.15v-39h11v56.3H271.61L256.25,80h-.16v41.17Z" transform="translate(-35.55 -47.94)"></path><path class="cls-1" d="M306.78,121.16V64.86h30.73v8.66H318.56V87.4H336v8.65H318.56v16.46h19.57v8.65Z" transform="translate(-35.55 -47.94)"></path></symbol><symbol id="search" viewBox="0 0 34 36"><path d="M129.915,65.8a14.054,14.054,0,1,0-2.337,1.9L137.884,78,140,75.884Zm-9.94,1.162a10.983,10.983,0,1,1,10.981-10.983A10.983,10.983,0,0,1,119.975,66.959Z" transform="translate(-106-42)"></path></symbol><symbol id="lookbook-grid" viewBox="0 0 34 34"><path d="m686 76h16v-16h-16v16m2-14h12v12h-12v-12m-20-4h16v-16h-16v16m2-14h12v12h-12v-12m-2 32h16v-16h-16v16m2-14h12v12h-12v-12m16-20v16h16v-16h-16m14 14h-12v-12h12v12" transform="translate(-668-42)"></path></symbol><symbol id="lookbook-slideshow" viewBox="0 0 35 34"><path d="m603 76h9v-34h-9v34m2-32h5v30h-5v-30m9 32h13v-34h-13v34m2-32h9v30h-9v-30m13-2v34h9v-34h-9m7 32h-5v-30h5v30" transform="translate(-603-42)"></path></symbol><symbol id="select-arrow" viewBox="0 0 15.719 9.75"><path d="M167.415,161.317a1.452,1.452,0,0,0-2.116,0l-5.3,5.536-5.3-5.536a1.452,1.452,0,0,0-2.116,0,1.61,1.61,0,0,0,0,2.209l6.359,6.64a1.46,1.46,0,0,0,1.058.458,0,0,0,0,1,0,0h0a1.46,1.46,0,0,0,1.058-.458l6.359-6.64A1.61,1.61,0,0,0,167.415,161.317Z" transform="translate(-152.16-160.87)"></path></symbol><symbol id="hearth" viewBox="0 0 29 25.03"><path d="M659,1112.56v1.3c-0.02.09-.043,0.18-0.058,0.27a10.873,10.873,0,0,1-1.357,4.03,18.721,18.721,0,0,1-2.065,2.78,33.925,33.925,0,0,1-3.19,3.2c-1.041.9-2.1,1.79-3.19,2.61-1.45,1.09-2.958,2.12-4.437,3.18a0.266,0.266,0,0,1-.354,0c-1.3-.92-2.639-1.8-3.906-2.77-1.334-1.01-2.61-2.09-3.9-3.19a28.228,28.228,0,0,1-4.35-4.65,10.973,10.973,0,0,1-1.96-4.35c-0.1-.37-0.168-0.71-0.235-1.07v-1.34c0.017-.07.032-0.14,0.049-0.22,0.128-.58.209-1.16,0.392-1.74a8.144,8.144,0,0,1,13.827-2.85,1.547,1.547,0,0,1,.154.26c0.316-.32.551-0.56,0.8-0.79a8.162,8.162,0,0,1,11.119-.04,8.014,8.014,0,0,1,2.392,4.02A13.628,13.628,0,0,1,659,1112.56Z" transform="translate(-630 -1105)"></path></symbol><symbol id="share" viewBox="0 0 22 25"><path d="M715.286,1105a4.56,4.56,0,0,0-4.715,4.36,3.938,3.938,0,0,0,.158,1.08l-5.117,3.63a4.938,4.938,0,0,0-2.9-.93,4.373,4.373,0,1,0,0,8.72,4.9,4.9,0,0,0,2.907-.94l5.108,3.63a3.972,3.972,0,0,0-.158,1.09,4.729,4.729,0,1,0,4.715-4.36,4.863,4.863,0,0,0-3.713,1.68l-4.724-3.37a4.044,4.044,0,0,0-.01-4.19l4.734-3.37a4.833,4.833,0,0,0,3.713,1.69A4.373,4.373,0,1,0,715.286,1105Zm0,1.74a2.628,2.628,0,1,1-2.829,2.62A2.721,2.721,0,0,1,715.286,1106.74Zm-12.572,8.14a2.628,2.628,0,1,1-2.828,2.62A2.715,2.715,0,0,1,702.714,1114.88Zm12.572,8.14a2.628,2.628,0,1,1-2.829,2.62A2.715,2.715,0,0,1,715.286,1123.02Z" transform="translate(-698 -1105)"></path></symbol></svg> 