<?xml version="1.0" encoding="UTF-8"?> <!-- Generator: Adobe Illustrator 23.0.1, SVG Export Plug-In . SVG Version: 6.00 Build 0) --> <svg xmlns="http://www.w3.org/2000/svg" xmlns:xlink="http://www.w3.org/1999/xlink" x="0px" y="0px" viewBox="0 0 756 145.1" xml:space="preserve"> <g id="BACKGROUND_2"> <g display="none"> <g display="inline"> <rect x="-31.7" y="29.2" fill="#1E2730" width="750" height="500"></rect> </g> </g> </g> <g id="BACKGROUND_1"> </g> <g id="DESIGNED_BY_FREEPIK"> <g> <path fill="#231F20" stroke="#231F20" stroke-miterlimit="10" d="M69.5,14.4h11.8l19.5,50.5l18.9-50.3h14.6L106.6,83h-12 L75.1,34.2L55.7,83h-12L16.1,14.6h15L50,64.9L69.5,14.4z"></path> <path fill="#231F20" stroke="#231F20" stroke-miterlimit="10" d="M254.5,82.5l-19.5-23.7h-17.5v23.7h-13.8V14.6H239 c4.5,0,8.6,0.5,12.3,1.5c3.7,1,6.7,2.4,9.3,4.3c2.5,1.8,4.5,4.1,5.8,6.8c1.4,2.7,2,5.7,2,9c0,2.8-0.5,5.4-1.4,7.6 c-0.9,2.2-2.2,4.2-3.9,5.9c-1.7,1.7-3.6,3.2-5.9,4.4c-2.3,1.2-4.8,2.1-7.6,2.8l21.4,25.7H254.5z M249.9,28.2 c-2.9-1.9-6.9-2.9-12.1-2.9h-20.3v22.9h20.4c5,0,9-1,11.9-3.1c3-2.1,4.4-4.9,4.4-8.4C254.2,33,252.8,30.2,249.9,28.2z"></path> <path fill="#231F20" stroke="#231F20" stroke-miterlimit="10" d="M336.6,25.4h-44.8v17.5h39.7v10.8h-39.7v18.1h45.4v10.8H278V14.6 h58.6V25.4z"></path> <path fill="#231F20" stroke="#231F20" stroke-miterlimit="10" d="M401.5,14.6h13.8v67.9h-11.6l-43.6-48.3v48.3h-13.8V14.6h12.9 l42.3,47V14.6z"></path> <path fill="#231F20" stroke="#231F20" stroke-miterlimit="10" d="M492.3,77.2c-2.4,1.3-4.9,2.4-7.7,3.4c-2.8,1-5.7,1.7-8.9,2.3 c-3.2,0.5-6.5,0.8-10,0.8c-6.2,0-11.8-0.9-16.9-2.7c-5.1-1.8-9.4-4.2-13-7.4c-3.6-3.1-6.4-6.8-8.3-11.1c-2-4.3-2.9-8.9-2.9-13.9 c0-4.8,1-9.3,3-13.6c2-4.3,4.8-8,8.4-11.2c3.6-3.2,7.9-5.7,13-7.6c5-1.9,10.5-2.8,16.5-2.8c3.5,0,6.6,0.2,9.4,0.6 c2.8,0.4,5.4,1,7.9,1.8c2.4,0.8,4.7,1.7,6.8,2.9c2.2,1.1,4.2,2.4,6.3,3.9l-8.8,9c-1.5-1.1-3.1-2.1-4.6-3c-1.6-0.9-3.2-1.7-5-2.3 c-1.7-0.6-3.6-1.1-5.7-1.5c-2.1-0.4-4.4-0.5-6.8-0.5c-3.6,0-7,0.6-10.1,1.9c-3.1,1.3-5.8,3-8.1,5.2c-2.3,2.2-4.1,4.8-5.4,7.7 c-1.3,2.9-2,6-2,9.3c0,3.5,0.6,6.7,1.9,9.7c1.3,3,3.1,5.6,5.5,7.7c2.4,2.2,5.2,3.9,8.5,5.1c3.3,1.2,7,1.8,11,1.8 c3.8,0,7.3-0.5,10.6-1.4c3.3-0.9,6.1-2.2,8.5-3.8V55h-20.3V44.6h33.7v28.5C496.9,74.5,494.7,75.9,492.3,77.2z"></path> <path fill="#231F20" stroke="#231F20" stroke-miterlimit="10" d="M523.3,53.9v28.6h-13.8V14.6h13.8v28.2h38V14.6h13.8v67.9h-13.8 V53.9H523.3z"></path> <path fill="#231F20" stroke="#231F20" stroke-miterlimit="10" d="M646.6,25.4h-44.8v17.5h39.7v10.8h-39.7v18.1h45.4v10.8H588V14.6 h58.6V25.4z"></path> <path fill="#231F20" stroke="#231F20" stroke-miterlimit="10" d="M695.4,65.8h-0.5L670.1,34v48.5h-13.8V14.6h14.8l24.1,32.1 l24.1-32.1h14.8v67.9h-13.8V33.8L695.4,65.8z"></path> </g> <path fill="#231F20" stroke="#231F20" stroke-width="3" stroke-miterlimit="10" d="M141.7,70.1l-6.8,12.4h-10.7L159.8,18l33.7,64.6 h-10.6l-6.4-12.4H141.7z M159.4,37.8L146.1,62h26.1L159.4,37.8z"></path> <g> <path d="M268.8,135.3h-1.4l-9.2-21.2h1.7l8.2,19.3l8.3-19.3h1.7L268.8,135.3z"></path> <path d="M300.7,135.1v-21h1.6v21H300.7z"></path> <path d="M335.5,135.3h-1.4l-9.2-21.2h1.7l8.2,19.3l8.3-19.3h1.6L335.5,135.3z"></path> <path d="M381.7,135.1l-2.7-5.9h-12.4l-2.7,5.9h-1.6l9.8-21.1h1.5l9.8,21.1H381.7z M372.9,115.7l-5.6,12.1h11.1L372.9,115.7z"></path> <path d="M422.2,135.1l-14.8-18.7v18.7h-1.5v-21h1.5l14.5,18.3v-18.3h1.5v21H422.2z"></path> <path d="M455,115.5v19.6h-1.6v-19.6h-7.3v-1.4h16.2v1.4H455z"></path> </g> <g> </g> <g> </g> <g> </g> <g> </g> <g> </g> <g> </g> </g> </svg> 